<mxfile host="app.diagrams.net" modified="2024-05-15T11:58:20.241Z" agent="Mozilla/5.0 (Windows NT 10.0; Win64; x64) AppleWebKit/537.36 (KHTML, like Gecko) Chrome/124.0.0.0 Safari/537.36 Edg/124.0.0.0" etag="iic1rLJZinCMV8oyVRgV" version="24.4.0" type="github">
  <diagram name="第 1 页" id="2Q7EJ7l_47jYazfSLr18">
    <mxGraphModel dx="1514" dy="831" grid="1" gridSize="10" guides="1" tooltips="1" connect="1" arrows="1" fold="1" page="1" pageScale="1" pageWidth="827" pageHeight="1169" math="0" shadow="0">
      <root>
        <mxCell id="0" />
        <mxCell id="1" parent="0" />
        <mxCell id="aD8HVvrzkeYgRYOUQNUD-90" value="API和接口" style="whiteSpace=wrap;strokeWidth=2;fontSize=18;fontFamily=Times New Roman;fontColor=#444444;rounded=1;fontStyle=1" parent="1" vertex="1">
          <mxGeometry x="560" y="149" width="89" height="34" as="geometry" />
        </mxCell>
        <mxCell id="aD8HVvrzkeYgRYOUQNUD-92" value="后端支持层" style="whiteSpace=wrap;strokeWidth=2;verticalAlign=bottom;fontFamily=Times New Roman;fontSize=14;rounded=1;fontStyle=1;fillColor=#B5E5F5;strokeColor=none;" parent="1" vertex="1">
          <mxGeometry x="440" y="34" width="100" height="480" as="geometry" />
        </mxCell>
        <mxCell id="aD8HVvrzkeYgRYOUQNUD-93" value="数据库管理" style="whiteSpace=wrap;strokeWidth=2;fontSize=18;fontFamily=Times New Roman;fontColor=#FFFFFF;rounded=1;fontStyle=1;fillColor=#013a63;" parent="1" vertex="1">
          <mxGeometry x="470" y="314" width="50" height="162" as="geometry" />
        </mxCell>
        <mxCell id="aD8HVvrzkeYgRYOUQNUD-133" style="rounded=0;orthogonalLoop=1;jettySize=auto;html=1;fontFamily=Times New Roman;fontColor=#444444;fontStyle=1;shape=flexArrow;endArrow=block;fontSize=14;strokeColor=none;startArrow=none;fillColor=#ffc101;exitX=1;exitY=0.5;exitDx=0;exitDy=0;entryX=0;entryY=0.5;entryDx=0;entryDy=0;" parent="1" source="aD8HVvrzkeYgRYOUQNUD-94" target="aD8HVvrzkeYgRYOUQNUD-90" edge="1">
          <mxGeometry relative="1" as="geometry">
            <mxPoint x="520" y="173" as="sourcePoint" />
            <mxPoint x="570" y="167" as="targetPoint" />
            <Array as="points" />
          </mxGeometry>
        </mxCell>
        <mxCell id="aD8HVvrzkeYgRYOUQNUD-94" value="服务器和网络基础设施" style="whiteSpace=wrap;strokeWidth=2;fontSize=18;fontFamily=Times New Roman;fontColor=#FFFFFF;rounded=1;fontStyle=1;fillColor=#013a63;" parent="1" vertex="1">
          <mxGeometry x="470" y="78" width="50" height="176" as="geometry" />
        </mxCell>
        <mxCell id="aD8HVvrzkeYgRYOUQNUD-96" value="数据分析层" style="whiteSpace=wrap;strokeWidth=2;verticalAlign=top;fontFamily=Times New Roman;fontSize=14;rounded=1;shadow=0;glass=0;fillColor=#E1F5E0;strokeColor=none;fontStyle=1" parent="1" vertex="1">
          <mxGeometry x="8" y="430" width="412" height="84" as="geometry" />
        </mxCell>
        <mxCell id="aD8HVvrzkeYgRYOUQNUD-97" value="生产数据分析" style="whiteSpace=wrap;strokeWidth=2;fontSize=18;fontFamily=Times New Roman;fontColor=#FFFFFF;rounded=1;fillColor=#243e36;strokeColor=none;fontStyle=1" parent="1" vertex="1">
          <mxGeometry x="230" y="455" width="180" height="34" as="geometry" />
        </mxCell>
        <mxCell id="aD8HVvrzkeYgRYOUQNUD-98" value="碳足迹评价方法分析" style="whiteSpace=wrap;strokeWidth=2;fontSize=18;fontFamily=Times New Roman;fontColor=#FFFFFF;rounded=1;fillColor=#243e36;strokeColor=none;fontStyle=1" parent="1" vertex="1">
          <mxGeometry x="20" y="455" width="201" height="34" as="geometry" />
        </mxCell>
        <mxCell id="aD8HVvrzkeYgRYOUQNUD-99" value="                                          数字孪生层" style="whiteSpace=wrap;strokeWidth=2;verticalAlign=top;fontFamily=Times New Roman;fontSize=14;rounded=1;fillColor=#fff2cc;strokeColor=none;fontStyle=1;labelPosition=center;verticalLabelPosition=middle;align=left;horizontal=1;" parent="1" vertex="1">
          <mxGeometry x="11" y="320" width="411" height="85" as="geometry" />
        </mxCell>
        <mxCell id="aD8HVvrzkeYgRYOUQNUD-100" value="车间数字孪生系统" style="whiteSpace=wrap;strokeWidth=2;fontSize=18;fontFamily=Times New Roman;rounded=1;fillColor=#ed7d31;strokeColor=#36393d;fontStyle=1" parent="1" vertex="1">
          <mxGeometry x="210" y="350.5" width="190" height="34" as="geometry" />
        </mxCell>
        <mxCell id="aD8HVvrzkeYgRYOUQNUD-102" value="业务逻辑层" style="whiteSpace=wrap;strokeWidth=2;verticalAlign=top;fontFamily=Times New Roman;fontSize=14;rounded=1;fillColor=#dae8fc;strokeColor=none;fontStyle=1;gradientColor=#FFFFFF;" parent="1" vertex="1">
          <mxGeometry x="11" y="140" width="411" height="160" as="geometry" />
        </mxCell>
        <mxCell id="7mU_pzhBPRhIk3vwuMmt-2" style="edgeStyle=orthogonalEdgeStyle;rounded=0;orthogonalLoop=1;jettySize=auto;html=1;entryX=0;entryY=0.5;entryDx=0;entryDy=0;labelBackgroundColor=default;endArrow=block;fontSize=14;fontFamily=Times New Roman;strokeColor=none;fontColor=#444444;startArrow=none;fontStyle=1;fillColor=#ffc101;shape=flexArrow;exitX=1.02;exitY=0.516;exitDx=0;exitDy=0;exitPerimeter=0;" parent="1" source="aD8HVvrzkeYgRYOUQNUD-103" target="aD8HVvrzkeYgRYOUQNUD-105" edge="1">
          <mxGeometry relative="1" as="geometry" />
        </mxCell>
        <mxCell id="aD8HVvrzkeYgRYOUQNUD-103" value="生产计划系统" style="whiteSpace=wrap;strokeWidth=2;fontSize=18;fontFamily=Times New Roman;rounded=1;fillColor=#1ba1e2;strokeColor=#006EAF;fontStyle=1;fontColor=#ffffff;" parent="1" vertex="1">
          <mxGeometry x="22" y="167" width="178" height="34" as="geometry" />
        </mxCell>
        <mxCell id="aD8HVvrzkeYgRYOUQNUD-104" value="生产资源分配系统" style="whiteSpace=wrap;strokeWidth=2;fontSize=18;fontFamily=Times New Roman;rounded=1;fillColor=#1ba1e2;strokeColor=#006EAF;fontStyle=1;fontColor=#ffffff;" parent="1" vertex="1">
          <mxGeometry x="122" y="236" width="211" height="34" as="geometry" />
        </mxCell>
        <mxCell id="aD8HVvrzkeYgRYOUQNUD-105" value="碳足迹评价系统" style="whiteSpace=wrap;strokeWidth=2;fontSize=18;fontFamily=Times New Roman;rounded=1;fillColor=#1ba1e2;strokeColor=#006EAF;fontStyle=1;fontColor=#ffffff;" parent="1" vertex="1">
          <mxGeometry x="260" y="167" width="140" height="34" as="geometry" />
        </mxCell>
        <mxCell id="aD8HVvrzkeYgRYOUQNUD-106" value="用户交互层" style="whiteSpace=wrap;strokeWidth=2;verticalAlign=top;fontFamily=Times New Roman;fontSize=14;rounded=1;fontStyle=1;" parent="1" vertex="1">
          <mxGeometry x="11" y="40" width="408" height="70" as="geometry" />
        </mxCell>
        <mxCell id="aD8HVvrzkeYgRYOUQNUD-107" value="产品定制" style="whiteSpace=wrap;strokeWidth=2;fontFamily=Times New Roman;fontSize=18;fontColor=#ffffff;rounded=1;fillColor=#647687;strokeColor=#314354;fontStyle=1" parent="1" vertex="1">
          <mxGeometry x="28" y="65" width="112" height="34" as="geometry" />
        </mxCell>
        <mxCell id="aD8HVvrzkeYgRYOUQNUD-120" value="配置数据" style="curved=1;startArrow=none;endArrow=block;entryX=0.5;entryY=0.0055147058823529415;rounded=0;fontFamily=Times New Roman;fontSize=14;fontColor=#444444;fontStyle=1;shape=flexArrow;fillColor=#ffc101;strokeColor=none;labelBackgroundColor=none;" parent="1" target="aD8HVvrzkeYgRYOUQNUD-103" edge="1">
          <mxGeometry x="-0.403" y="-41" relative="1" as="geometry">
            <Array as="points" />
            <mxPoint x="111" y="100" as="sourcePoint" />
            <mxPoint as="offset" />
          </mxGeometry>
        </mxCell>
        <mxCell id="aD8HVvrzkeYgRYOUQNUD-122" value="订单信息" style="curved=1;startArrow=none;endArrow=block;rounded=0;fontSize=14;fontFamily=Times New Roman;fontColor=#444444;labelBackgroundColor=none;fontStyle=1;shape=flexArrow;strokeColor=none;fillColor=#ffc101;" parent="1" edge="1">
          <mxGeometry x="-0.5" relative="1" as="geometry">
            <Array as="points" />
            <mxPoint as="offset" />
            <mxPoint x="230" y="190" as="sourcePoint" />
            <mxPoint x="230" y="230" as="targetPoint" />
          </mxGeometry>
        </mxCell>
        <mxCell id="aD8HVvrzkeYgRYOUQNUD-123" value="资源分配决策" style="startArrow=none;endArrow=block;entryX=0.25;entryY=0;rounded=0;fontSize=14;fontFamily=Times New Roman;entryDx=0;entryDy=0;fontColor=#444444;fontStyle=1;shape=flexArrow;strokeColor=none;fillColor=#ffc101;labelBackgroundColor=none;exitX=0.533;exitY=1.147;exitDx=0;exitDy=0;exitPerimeter=0;" parent="1" source="aD8HVvrzkeYgRYOUQNUD-104" target="aD8HVvrzkeYgRYOUQNUD-100" edge="1">
          <mxGeometry x="-1" y="-46" relative="1" as="geometry">
            <Array as="points" />
            <mxPoint x="132" y="310" as="sourcePoint" />
            <mxPoint x="-2" y="-8" as="offset" />
          </mxGeometry>
        </mxCell>
        <mxCell id="aD8HVvrzkeYgRYOUQNUD-129" value="数据存储与管理" style="curved=1;startArrow=none;endArrow=block;rounded=0;fontSize=14;fontFamily=Times New Roman;fontColor=#444444;fontStyle=1;shape=flexArrow;labelBackgroundColor=none;strokeColor=none;fillColor=#ffc101;exitX=0.5;exitY=0;exitDx=0;exitDy=0;" parent="1" source="aD8HVvrzkeYgRYOUQNUD-93" target="aD8HVvrzkeYgRYOUQNUD-94" edge="1">
          <mxGeometry x="0.0763" y="-4" relative="1" as="geometry">
            <Array as="points" />
            <mxPoint as="offset" />
            <mxPoint x="495" y="360" as="sourcePoint" />
            <mxPoint x="495" y="320" as="targetPoint" />
          </mxGeometry>
        </mxCell>
        <mxCell id="aD8HVvrzkeYgRYOUQNUD-135" value="" style="endArrow=block;html=1;fontColor=#444444;rounded=0;fontStyle=1;shape=flexArrow;fontSize=14;fontFamily=Times New Roman;strokeColor=none;startArrow=block;fillColor=#ffc101;" parent="1" edge="1">
          <mxGeometry width="50" height="50" relative="1" as="geometry">
            <mxPoint x="364" y="210" as="sourcePoint" />
            <mxPoint x="364" y="320" as="targetPoint" />
            <Array as="points" />
          </mxGeometry>
        </mxCell>
        <mxCell id="aD8HVvrzkeYgRYOUQNUD-136" value="碳足迹数据" style="edgeLabel;align=center;verticalAlign=middle;resizable=0;points=[];endArrow=block;fontSize=14;fontFamily=Times New Roman;rounded=0;strokeColor=none;startArrow=none;fontColor=#444444;fontStyle=1;labelBackgroundColor=none;fillColor=#ffc101;" parent="aD8HVvrzkeYgRYOUQNUD-135" vertex="1" connectable="0">
          <mxGeometry x="-0.1766" y="-6" relative="1" as="geometry">
            <mxPoint x="22" y="-13" as="offset" />
          </mxGeometry>
        </mxCell>
        <mxCell id="aD8HVvrzkeYgRYOUQNUD-139" value="" style="endArrow=block;html=1;rounded=0;exitX=0.685;exitY=0.088;exitDx=0;exitDy=0;fontColor=#444444;fontStyle=1;shape=flexArrow;fontSize=14;fontFamily=Times New Roman;strokeColor=none;startArrow=none;fillColor=#ffc101;exitPerimeter=0;" parent="1" source="aD8HVvrzkeYgRYOUQNUD-105" edge="1">
          <mxGeometry width="50" height="50" relative="1" as="geometry">
            <mxPoint x="200" y="220" as="sourcePoint" />
            <mxPoint x="356" y="100" as="targetPoint" />
          </mxGeometry>
        </mxCell>
        <mxCell id="aD8HVvrzkeYgRYOUQNUD-140" value="反馈信息" style="edgeLabel;html=1;align=center;verticalAlign=middle;resizable=0;points=[];endArrow=block;fontSize=14;fontFamily=Times New Roman;rounded=0;strokeColor=none;startArrow=none;fontColor=#444444;fontStyle=1;fillColor=#ffc101;labelBackgroundColor=none;" parent="aD8HVvrzkeYgRYOUQNUD-139" vertex="1" connectable="0">
          <mxGeometry x="0.1357" relative="1" as="geometry">
            <mxPoint x="37" y="5" as="offset" />
          </mxGeometry>
        </mxCell>
        <mxCell id="aD8HVvrzkeYgRYOUQNUD-144" value="" style="shape=flexArrow;endArrow=classic;startArrow=classic;html=1;rounded=0;fontStyle=1;strokeColor=none;fillColor=#FFC101;" parent="1" edge="1">
          <mxGeometry width="100" height="100" relative="1" as="geometry">
            <mxPoint x="222" y="390" as="sourcePoint" />
            <mxPoint x="152" y="440" as="targetPoint" />
          </mxGeometry>
        </mxCell>
        <mxCell id="7mU_pzhBPRhIk3vwuMmt-10" value="生产碳足迹" style="edgeLabel;html=1;align=center;verticalAlign=middle;resizable=0;points=[];labelBackgroundColor=none;endArrow=block;fontSize=14;fontFamily=Times New Roman;rounded=0;fontColor=#444444;startArrow=none;fontStyle=1;fillColor=#ffc101;" parent="aD8HVvrzkeYgRYOUQNUD-144" vertex="1" connectable="0">
          <mxGeometry x="-0.0818" y="2" relative="1" as="geometry">
            <mxPoint as="offset" />
          </mxGeometry>
        </mxCell>
        <mxCell id="aD8HVvrzkeYgRYOUQNUD-146" value="" style="shape=flexArrow;endArrow=classic;startArrow=classic;html=1;rounded=0;entryX=0.556;entryY=0;entryDx=0;entryDy=0;fontStyle=1;fillColor=#FFC101;strokeColor=none;entryPerimeter=0;" parent="1" target="aD8HVvrzkeYgRYOUQNUD-97" edge="1">
          <mxGeometry width="100" height="100" relative="1" as="geometry">
            <mxPoint x="330" y="390" as="sourcePoint" />
            <mxPoint x="330" y="623" as="targetPoint" />
          </mxGeometry>
        </mxCell>
        <mxCell id="7mU_pzhBPRhIk3vwuMmt-11" value="实时生产数据" style="edgeLabel;html=1;align=center;verticalAlign=middle;resizable=0;points=[];labelBackgroundColor=none;endArrow=block;fontSize=14;fontFamily=Times New Roman;rounded=0;fontColor=#444444;startArrow=none;fontStyle=1;fillColor=#ffc101;" parent="aD8HVvrzkeYgRYOUQNUD-146" vertex="1" connectable="0">
          <mxGeometry x="-0.0833" y="-1" relative="1" as="geometry">
            <mxPoint as="offset" />
          </mxGeometry>
        </mxCell>
        <mxCell id="AIAgmdHqUQG0XIoyJWZs-2" value="" style="endArrow=block;html=1;entryX=0;entryY=0.5;entryDx=0;entryDy=0;fontColor=#444444;rounded=0;fontStyle=1;shape=flexArrow;fontSize=14;fontFamily=Times New Roman;strokeColor=none;startArrow=none;fillColor=#ffc101;exitX=0.937;exitY=0.003;exitDx=0;exitDy=0;exitPerimeter=0;" parent="1" source="aD8HVvrzkeYgRYOUQNUD-96" target="aD8HVvrzkeYgRYOUQNUD-93" edge="1">
          <mxGeometry width="50" height="50" relative="1" as="geometry">
            <mxPoint x="420" y="520" as="sourcePoint" />
            <mxPoint x="424" y="588.95" as="targetPoint" />
            <Array as="points" />
          </mxGeometry>
        </mxCell>
        <mxCell id="AIAgmdHqUQG0XIoyJWZs-4" value="分析结果" style="edgeLabel;html=1;align=center;verticalAlign=middle;resizable=0;points=[];fontFamily=Times New Roman;fontStyle=1;fontSize=15;labelBackgroundColor=none;fontColor=#444444;" parent="AIAgmdHqUQG0XIoyJWZs-2" vertex="1" connectable="0">
          <mxGeometry x="-0.0344" relative="1" as="geometry">
            <mxPoint x="-1" y="15" as="offset" />
          </mxGeometry>
        </mxCell>
        <mxCell id="qGSyqzhugwNfOkxAxkwJ-2" value="仿真环境信息" style="startArrow=none;endArrow=block;rounded=0;fontSize=14;fontFamily=Times New Roman;fontColor=#444444;fontStyle=1;shape=flexArrow;strokeColor=none;fillColor=#ffc101;exitX=0.363;exitY=-0.07;exitDx=0;exitDy=0;exitPerimeter=0;labelBackgroundColor=none;entryX=0.654;entryY=1;entryDx=0;entryDy=0;entryPerimeter=0;" parent="1" source="aD8HVvrzkeYgRYOUQNUD-100" target="aD8HVvrzkeYgRYOUQNUD-104" edge="1">
          <mxGeometry x="0.1273" y="-39" relative="1" as="geometry">
            <Array as="points" />
            <mxPoint x="142" y="320" as="sourcePoint" />
            <mxPoint as="offset" />
            <mxPoint x="280" y="300" as="targetPoint" />
          </mxGeometry>
        </mxCell>
        <mxCell id="qGSyqzhugwNfOkxAxkwJ-10" style="rounded=0;orthogonalLoop=1;jettySize=auto;html=1;shape=flexArrow;strokeColor=none;fillColor=#ffc101;exitX=0.338;exitY=-0.105;exitDx=0;exitDy=0;exitPerimeter=0;" parent="1" source="qGSyqzhugwNfOkxAxkwJ-4" edge="1">
          <mxGeometry relative="1" as="geometry">
            <mxPoint x="90" y="380" as="sourcePoint" />
            <mxPoint x="84" y="210" as="targetPoint" />
          </mxGeometry>
        </mxCell>
        <mxCell id="7mU_pzhBPRhIk3vwuMmt-1" value="产品部件信息" style="edgeLabel;html=1;align=center;verticalAlign=middle;resizable=0;points=[];labelBackgroundColor=none;endArrow=block;fontSize=14;fontFamily=Times New Roman;rounded=0;fontColor=#444444;startArrow=none;fontStyle=1;fillColor=#ffc101;" parent="qGSyqzhugwNfOkxAxkwJ-10" vertex="1" connectable="0">
          <mxGeometry x="0.0579" y="2" relative="1" as="geometry">
            <mxPoint x="-25" y="22" as="offset" />
          </mxGeometry>
        </mxCell>
        <mxCell id="7mU_pzhBPRhIk3vwuMmt-4" style="rounded=0;orthogonalLoop=1;jettySize=auto;html=1;labelBackgroundColor=none;shape=flexArrow;fillColor=#ffc101;strokeColor=none;startArrow=block;" parent="1" edge="1">
          <mxGeometry relative="1" as="geometry">
            <mxPoint x="90" y="390" as="sourcePoint" />
            <mxPoint x="90" y="450" as="targetPoint" />
          </mxGeometry>
        </mxCell>
        <mxCell id="7mU_pzhBPRhIk3vwuMmt-9" value="使用碳足迹" style="edgeLabel;html=1;align=center;verticalAlign=middle;resizable=0;points=[];labelBackgroundColor=none;endArrow=block;fontSize=14;fontFamily=Times New Roman;rounded=0;fontColor=#444444;startArrow=none;fontStyle=1;fillColor=#ffc101;" parent="7mU_pzhBPRhIk3vwuMmt-4" vertex="1" connectable="0">
          <mxGeometry x="-0.1589" y="-1" relative="1" as="geometry">
            <mxPoint x="-19" y="5" as="offset" />
          </mxGeometry>
        </mxCell>
        <mxCell id="qGSyqzhugwNfOkxAxkwJ-4" value="产品数字孪生系统" style="whiteSpace=wrap;strokeWidth=2;fontSize=18;fontFamily=Times New Roman;rounded=1;fillColor=#ed7d31;strokeColor=#36393d;fontStyle=1" parent="1" vertex="1">
          <mxGeometry x="30" y="350.5" width="160" height="34" as="geometry" />
        </mxCell>
        <mxCell id="7mU_pzhBPRhIk3vwuMmt-14" value="产品生产" style="whiteSpace=wrap;strokeWidth=2;fontFamily=Times New Roman;fontSize=18;fontColor=#ffffff;rounded=1;fillColor=#647687;strokeColor=#314354;fontStyle=1" parent="1" vertex="1">
          <mxGeometry x="292" y="65" width="118" height="34" as="geometry" />
        </mxCell>
      </root>
    </mxGraphModel>
  </diagram>
</mxfile>
